REM MD5 e8846b7e87de226af1bbeaa2dba53898
FILE "Battle Hunter (USA).bin" BINARY
  TRACK 01 MODE2/2352
    INDEX 01 00:00:00
  TRACK 02 AUDIO
    INDEX 00 00:55:55
    INDEX 01 00:57:55
  TRACK 03 AUDIO
    INDEX 00 02:29:26
    INDEX 01 02:31:26
  TRACK 04 AUDIO
    INDEX 00 03:59:05
    INDEX 01 04:01:05
  TRACK 05 AUDIO
    INDEX 00 05:28:59
    INDEX 01 05:30:59
REM LEADOUT 08:07:41
